<svg width="16" height="16" fill="none" xmlns="http://www.w3.org/2000/svg"><path opacity=".5" d="M7.233 9.545v-.05c.006-.543.062-.975.17-1.296.108-.321.262-.581.46-.78.2-.199.438-.382.717-.55.167-.102.318-.223.451-.362a1.611 1.611 0 00.435-1.104c0-.278-.065-.52-.196-.724a1.316 1.316 0 00-.524-.473 1.59 1.59 0 00-.729-.166c-.233 0-.457.048-.673.145a1.303 1.303 0 00-.541.456c-.145.207-.23.478-.252.814H5.477c.023-.483.148-.897.375-1.24a2.26 2.26 0 01.908-.789 2.861 2.861 0 011.257-.273c.5 0 .935.1 1.304.299.372.199.66.471.86.818.205.346.308.741.308 1.185 0 .312-.049.595-.145.848a2.09 2.09 0 01-.41.677 2.794 2.794 0 01-.639.529c-.25.156-.45.32-.6.494-.151.17-.26.373-.329.61a3.398 3.398 0 00-.11.881v.051H7.233zm.545 2.523a.738.738 0 01-.54-.226.738.738 0 01-.227-.54c0-.211.076-.391.226-.542a.738.738 0 01.541-.226.74.74 0 01.542.226c.15.15.225.33.225.541a.796.796 0 01-.384.665.73.73 0 01-.383.102z" fill="#252525"/><circle opacity=".5" cx="8" cy="8" r="7.5" stroke="#252525"/></svg>